<svg width="72" height="72" viewBox="0 0 72 72" fill="none" xmlns="http://www.w3.org/2000/svg">
<path fill-rule="evenodd" clip-rule="evenodd" d="M5.43739 3.21704C1.28723 6.34312 -0.967333 10.3778 0.399259 12.2331C1.77215 14.0948 6.24978 13.0655 10.4062 9.93938C14.5627 6.81965 16.8173 2.77862 15.4444 0.923307C14.0715 -0.932009 9.59384 0.09731 5.43739 3.21704Z" transform="translate(29.5369 12.8595)" fill="#3C448F"/>
<path fill-rule="evenodd" clip-rule="evenodd" d="M1.17136 7.35773H0V0H3.32516C3.84787 0 4.27611 0.0381229 4.59099 0.101661C4.90588 0.177907 5.18297 0.285922 5.3908 0.43206C5.61751 0.609967 5.80644 0.838705 5.94499 1.11827C6.07724 1.4042 6.14022 1.70918 6.14022 2.03958C6.14022 2.36362 6.08984 2.64954 5.97648 2.9037C5.86942 3.1642 5.70568 3.38659 5.49786 3.55179C5.3782 3.65345 5.24595 3.7424 5.12629 3.79323C5.00664 3.85042 4.8303 3.91396 4.62248 3.97114C4.86179 4.07915 5.06962 4.19352 5.23336 4.31425C5.39709 4.43497 5.52935 4.58746 5.63011 4.75266C5.72457 4.91786 5.80644 5.12754 5.85682 5.36898C5.9135 5.61678 5.94499 5.9027 5.97018 6.24581C5.97648 6.46184 5.98907 6.62704 6.00167 6.74776C6.01426 6.86848 6.02056 6.95744 6.03316 7.02733C6.04575 7.10358 6.06465 7.16076 6.08984 7.19888C6.09613 7.24336 6.13392 7.30054 6.16541 7.35773H4.96256C4.94366 7.30054 4.93107 7.26877 4.91847 7.23701C4.90588 7.19888 4.88698 7.14805 4.87439 7.04639C4.86179 6.86213 4.8555 6.7287 4.8429 6.62704C4.8303 6.53173 4.81771 6.41736 4.81141 6.29664C4.77992 5.90906 4.69805 5.59136 4.60359 5.3245C4.50283 5.064 4.35168 4.85432 4.16275 4.68912C3.96753 4.53663 3.71562 4.42226 3.41963 4.34602C3.12364 4.28248 2.75208 4.24435 2.33013 4.24435H1.17136V7.35773ZM3.24959 3.31034C3.58337 3.31034 3.86047 3.28493 4.05569 3.25316C4.23832 3.22139 4.39577 3.15785 4.50283 3.0689C4.77992 2.84651 4.90588 2.52882 4.90588 2.11582C4.90588 1.88709 4.86179 1.67741 4.78622 1.49315C4.69805 1.30253 4.5784 1.1691 4.41466 1.08015C4.32019 1.02932 4.17535 0.991197 4.01161 0.972135C3.83527 0.953074 3.58337 0.940366 3.24959 0.940366H1.17136V3.31034H3.24959Z" transform="translate(2.19531 60.6423)" fill="#1778BD"/>
<path fill-rule="evenodd" clip-rule="evenodd" d="M0 0H1.17136V7.35773H0V0Z" transform="translate(9.55078 60.6423)" fill="#1778BD"/>
<path fill-rule="evenodd" clip-rule="evenodd" d="M0.264502 6.41736H3.41333C3.68413 6.41736 3.90455 6.41101 4.06829 6.37289C4.23203 6.34112 4.36428 6.29664 4.48393 6.22039C4.78622 6.03613 4.94366 5.7248 4.94366 5.29274C4.94366 5.01952 4.88698 4.77808 4.77992 4.58746C4.66027 4.4032 4.49653 4.28248 4.28871 4.21258C4.18794 4.18082 4.05569 4.16175 3.89195 4.14905C3.72821 4.13634 3.5015 4.13634 3.19291 4.13634H2.59464C2.13491 4.13634 1.76334 4.10457 1.46735 4.04739C1.17136 3.9902 0.932054 3.89489 0.743124 3.76146C0.503813 3.59626 0.321181 3.38659 0.201525 3.11973C0.0692743 2.85922 0 2.56059 0 2.21748C0 1.79813 0.100763 1.42326 0.289692 1.09286C0.472324 0.762459 0.724231 0.495598 1.05171 0.311337C1.25953 0.203322 1.49884 0.120723 1.77594 0.0698921C2.04674 0.0254153 2.39311 0 2.83395 0H5.82534V0.940366H2.83395C2.51906 0.940366 2.26716 0.953074 2.10342 0.984843C1.92708 1.01661 1.77594 1.0738 1.64999 1.15004C1.53033 1.239 1.43587 1.35972 1.36029 1.51221C1.27842 1.67741 1.23434 1.85532 1.23434 2.05229C1.23434 2.42716 1.36029 2.69402 1.6122 2.84651C1.85151 2.999 2.25456 3.07525 2.83395 3.07525H3.26849C3.58967 3.07525 3.87306 3.08796 4.09978 3.10067C4.33279 3.11337 4.52802 3.13244 4.70435 3.1642C4.86809 3.20233 5.01923 3.2468 5.13889 3.29763C5.25855 3.35482 5.36561 3.43106 5.46637 3.50731C5.69308 3.69793 5.86942 3.95208 5.98907 4.24435C6.10873 4.54298 6.178 4.88609 6.178 5.24826C6.178 5.68032 6.08984 6.05519 5.90091 6.37289C5.71828 6.69693 5.45377 6.93838 5.12 7.10358C5.01923 7.16076 4.91217 7.19253 4.79882 7.2243C4.69176 7.25607 4.5721 7.28784 4.42725 7.30054C4.28871 7.32596 4.12497 7.33231 3.93604 7.34502C3.75341 7.35773 3.52039 7.35773 3.26849 7.35773H0.264502V6.41736Z" transform="translate(11.8875 60.6423)" fill="#1778BD"/>
<path fill-rule="evenodd" clip-rule="evenodd" d="M0 0.940366V0H6.2032V0.940366H3.69043V7.35773H2.52536V0.940366H0Z" transform="translate(18.481 60.6423)" fill="#1778BD"/>
<path fill-rule="evenodd" clip-rule="evenodd" d="M5.6427 0.940366H3.52039C3.26219 0.940366 3.02917 0.953074 2.83395 0.984843C2.63872 1.01661 2.46238 1.06109 2.31754 1.12463C2.16639 1.20087 2.03414 1.28983 1.92708 1.4042C1.81373 1.51221 1.71926 1.64564 1.6185 1.81084C1.56812 1.9125 1.51144 1.9951 1.47995 2.08405C1.44216 2.18572 1.41068 2.28738 1.39178 2.38268C1.36029 2.48435 1.3351 2.60507 1.32251 2.7385C1.31621 2.87193 1.30362 3.02442 1.29102 3.18962H5.6427V4.12363H1.27842C1.29102 4.67641 1.40438 5.15295 1.63109 5.5596C1.81373 5.87729 2.04674 6.09967 2.31754 6.22039C2.59464 6.35382 2.9662 6.41736 3.45742 6.41736H5.6427V7.35773H3.24959C2.92841 7.35773 2.63872 7.33231 2.38681 7.30054C2.13491 7.26877 1.90189 7.19888 1.70667 7.12264C1.49884 7.04639 1.32251 6.93838 1.15877 6.80495C0.99503 6.68422 0.843886 6.51902 0.69904 6.32841C0.453431 5.99801 0.277097 5.63584 0.163739 5.2419C0.0566789 4.85432 0 4.37778 0 3.825C0 2.33821 0.428241 1.24535 1.27842 0.578198C1.53033 0.374876 1.85151 0.235091 2.22307 0.13343C2.58204 0.0444768 3.04177 0 3.58967 0H5.6427V0.940366Z" transform="translate(25.0996 60.6423)" fill="#1778BD"/>
<path fill-rule="evenodd" clip-rule="evenodd" d="M1.16507 7.35773H0V0H1.16507V7.35773ZM4.68546 0H6.10873L2.412 3.55179L6.32285 7.35773H4.76103L1.16507 3.60897L4.68546 0Z" transform="translate(32.0337 60.6423)" fill="#1778BD"/>
<path fill-rule="evenodd" clip-rule="evenodd" d="M2.80246 0C3.18032 0 3.51409 0.0127076 3.78489 0.0381229C4.05569 0.0698921 4.3076 0.114369 4.51542 0.165199C4.72324 0.235091 4.89958 0.324045 5.06332 0.419352C5.22706 0.533721 5.3782 0.660798 5.53564 0.825997C5.85053 1.1691 6.08984 1.55669 6.23468 1.9951C6.37323 2.45258 6.4488 2.97994 6.4488 3.60897C6.4488 4.44768 6.32915 5.14024 6.10243 5.69938C5.86942 6.26487 5.52305 6.68422 5.06332 6.95744C4.93107 7.03368 4.79882 7.10358 4.66657 7.16076C4.54061 7.21159 4.39577 7.24336 4.23203 7.28148C4.06829 7.31325 3.88566 7.32596 3.67783 7.33231C3.47001 7.34502 3.20551 7.35773 2.90952 7.35773H0V0H2.80246ZM1.17136 6.41736H3.02917C3.47631 6.41736 3.84157 6.35382 4.12497 6.2331C4.39577 6.11238 4.62878 5.92176 4.79252 5.64855C4.93107 5.43887 5.03813 5.15931 5.12 4.84161C5.18297 4.52392 5.21446 4.16811 5.21446 3.77417C5.21446 3.29763 5.17038 2.87193 5.07591 2.48435C4.97515 2.09676 4.83031 1.78542 4.66027 1.55669C4.49653 1.3343 4.27611 1.18181 4.01161 1.08015C3.75341 0.984843 3.40074 0.940366 2.9536 0.940366H1.17136V6.41736Z" transform="translate(39.1753 60.6423)" fill="#1778BD"/>
<path fill-rule="evenodd" clip-rule="evenodd" d="M0 0H1.16507V7.35773H0V0Z" transform="translate(46.7761 60.6423)" fill="#1778BD"/>
<path fill-rule="evenodd" clip-rule="evenodd" d="M1.17136 7.35773H0V0H1.17136V7.35773ZM4.69176 0H6.10873L2.4183 3.55179L6.32915 7.35773H4.76733L1.17136 3.60897L4.69176 0Z" transform="translate(49.5032 60.6423)" fill="#1778BD"/>
<path fill-rule="evenodd" clip-rule="evenodd" d="M0 0.940366V0H6.20949V0.940366H3.69043V7.35773H2.52536V0.940366H0Z" transform="translate(56.1284 60.6423)" fill="#1778BD"/>
<path fill-rule="evenodd" clip-rule="evenodd" d="M0 0H1.17136V7.35773H0V0Z" transform="translate(63.1628 60.6423)" fill="#1778BD"/>
<path fill-rule="evenodd" clip-rule="evenodd" d="M0 40.6518C11.0776 29.8439 18.8174 13.6544 3.83527 0C32.3637 4.95598 54.1158 18.7247 62.372 40.3658C41.955 35.448 23.4462 36.6234 0 40.6518Z" transform="translate(2 18.3322)" fill="#3C448F"/>
<path fill-rule="evenodd" clip-rule="evenodd" d="M8.96529 3.95208C9.10384 4.18717 9.23609 4.42226 9.36834 4.65735C5.50158 7.07816 1.77966 7.91051 0.46975 6.46184C-0.651234 5.2292 0.299713 2.66225 2.62355 0C0.916884 2.38268 0.696466 4.54934 2.32126 5.33721C3.78862 6.04884 6.38325 5.43887 8.96529 3.95208Z" transform="translate(51.7544 47.1086)" fill="#FEFEFE"/>
<path fill-rule="evenodd" clip-rule="evenodd" d="M18.7387 5.83281C19.0283 6.20769 19.318 6.58256 19.5951 6.95744C11.6916 12.6187 3.53611 14.8298 0.859601 11.8753C-1.19344 9.60698 0.551016 4.8988 4.81453 0C1.6783 4.38414 1.27525 8.36163 4.26034 9.80395C7.39027 11.3225 13.3038 9.58157 18.7387 5.83281Z" transform="translate(37.9312 39.268)" fill="#FEFEFE"/>
<path fill-rule="evenodd" clip-rule="evenodd" d="M30.8138 9.715C31.4499 10.2169 32.0734 10.7253 32.6779 11.2463C19.5284 20.7643 5.8751 24.5258 1.42265 19.6079C-1.97179 15.8528 0.906243 8.08206 7.94703 0C2.77035 7.23065 2.1091 13.8005 7.03387 16.1832C12.1791 18.6802 21.8774 15.8401 30.8138 9.715Z" transform="translate(16.0947 25.6264)" fill="#FEFEFE"/>
<path fill-rule="evenodd" clip-rule="evenodd" d="M2.58204 10.2655C7.14155 6.70733 9.57874 2.43121 8.02322 0.715676C6.93372 -0.485197 4.19424 -0.123029 1.0895 1.4146C2.90952 0.709322 4.5658 0.531415 5.63011 1.05243C7.75242 2.08175 6.7259 5.46834 3.33776 8.61983C2.29235 9.59197 1.14617 10.4243 0 11.0851C0.138549 11.3202 0.270799 11.5553 0.40305 11.7904C1.12728 11.3393 1.85781 10.8246 2.58204 10.2655Z" transform="translate(60.7195 39.9756)" fill="#1778BD"/>
<path fill-rule="evenodd" clip-rule="evenodd" d="M2.73318 18.8576C11.1154 12.3195 15.5867 4.46614 12.7339 1.30829C10.7375 -0.890133 5.70568 -0.222981 0 2.59812C3.33776 1.30829 6.37953 0.977891 8.3381 1.93096C12.2427 3.81805 10.3534 10.0448 4.12497 15.8395C2.90322 16.9768 1.59961 18.0188 0.264502 18.9338C0.554194 19.3087 0.843886 19.6835 1.12098 20.0584C1.66258 19.6772 2.19788 19.2769 2.73318 18.8576Z" transform="translate(56.4058 26.167)" fill="#1778BD"/>
<path fill-rule="evenodd" clip-rule="evenodd" d="M4.51542 31.1253C18.3451 20.3365 25.7322 7.36837 21.0153 2.16459C17.7279 -1.4698 9.4213 -0.370586 0 4.28677C5.51045 2.15824 10.536 1.61816 13.7667 3.18755C20.2092 6.30728 17.0918 16.5878 6.81407 26.1439C4.75473 28.0628 2.56315 29.8037 0.321181 31.3413C0.957244 31.8433 1.58071 32.3516 2.18529 32.8726C2.9662 32.3135 3.74081 31.7289 4.51542 31.1253Z" transform="translate(46.5874 4)" fill="#1778BD"/>
</svg>
